<svg width="25" height="51" viewBox="0 0 25 51" fill="none" xmlns="http://www.w3.org/2000/svg">
    <path d="M2.21449 51C1.92473 51.0016 1.63749 50.948 1.36923 50.8423C1.10098 50.7365 0.856996 50.5807 0.651266 50.3838C0.444902 50.1863 0.281107 49.9513 0.169328 49.6924C0.0575497 49.4335 0 49.1558 0 48.8753C0 48.5949 0.0575497 48.3172 0.169328 48.0582C0.281107 47.7993 0.444902 47.5644 0.651266 47.3668L18.6394 30.0086C19.8763 28.8134 20.5711 27.1934 20.5711 25.5043C20.5711 23.8152 19.8763 22.1952 18.6394 21.0001L0.651266 3.64182C0.236673 3.24174 0.00375746 2.69912 0.00375746 2.13333C0.00375746 1.56754 0.236673 1.02491 0.651266 0.624838C1.06586 0.224761 1.62817 0 2.21449 0C2.80081 0 3.36312 0.224761 3.77771 0.624838L21.7658 17.9831C22.791 18.9699 23.6044 20.1422 24.1594 21.4328C24.7143 22.7234 25 24.107 25 25.5043C25 26.9016 24.7143 28.2852 24.1594 29.5758C23.6044 30.8665 22.791 32.0387 21.7658 33.0255L3.77771 50.3838C3.57199 50.5807 3.328 50.7365 3.05975 50.8423C2.79149 50.948 2.50425 51.0016 2.21449 51Z" fill="white" fill-opacity="0.75"/>
</svg>
