<svg width="25" height="51" viewBox="0 0 25 51" fill="none" xmlns="http://www.w3.org/2000/svg">
    <path d="M22.7855 51C23.0753 51.0016 23.3625 50.948 23.6308 50.8423C23.899 50.7365 24.143 50.5807 24.3487 50.3838C24.5551 50.1863 24.7189 49.9513 24.8307 49.6924C24.9425 49.4335 25 49.1558 25 48.8753C25 48.5949 24.9425 48.3172 24.8307 48.0582C24.7189 47.7993 24.5551 47.5644 24.3487 47.3668L6.36065 30.0086C5.12371 28.8134 4.42894 27.1934 4.42894 25.5043C4.42894 23.8152 5.12371 22.1952 6.36065 21.0001L24.3487 3.64182C24.7633 3.24174 24.9962 2.69912 24.9962 2.13333C24.9962 1.56754 24.7633 1.02491 24.3487 0.624838C23.9341 0.224761 23.3718 0 22.7855 0C22.1992 0 21.6369 0.224761 21.2223 0.624838L3.2342 17.9831C2.209 18.9699 1.39562 20.1422 0.840649 21.4328C0.285671 22.7234 1.90735e-06 24.107 1.90735e-06 25.5043C1.90735e-06 26.9016 0.285671 28.2852 0.840649 29.5758C1.39562 30.8665 2.209 32.0387 3.2342 33.0255L21.2223 50.3838C21.428 50.5807 21.672 50.7365 21.9403 50.8423C22.2085 50.948 22.4957 51.0016 22.7855 51Z" fill="white" fill-opacity="0.75"/>
</svg>
