<svg width="43" height="40" viewBox="0 0 43 40" fill="none" xmlns="http://www.w3.org/2000/svg">
    <g clip-path="url(#clip0_167_63)">
        <path d="M37.4976 9.92217H32.2646C32.2646 7.29521 31.1619 4.77585 29.1991 2.91831C27.2364 1.06077 24.5743 0.0172119 21.7986 0.0172119C19.0228 0.0172119 16.3607 1.06077 14.398 2.91831C12.4352 4.77585 11.3326 7.29521 11.3326 9.92217H6.09957C4.7117 9.92217 3.38066 10.444 2.39929 11.3727C1.41791 12.3015 0.866577 13.5612 0.866577 14.8747L0.866577 31.3829C0.869347 33.5713 1.78912 35.6692 3.42415 37.2166C5.05918 38.764 7.27596 39.6344 9.58824 39.6371H34.0089C36.3212 39.6344 38.538 38.764 40.173 37.2166C41.808 35.6692 42.7278 33.5713 42.7306 31.3829V14.8747C42.7306 13.5612 42.1792 12.3015 41.1978 11.3727C40.2165 10.444 38.8854 9.92217 37.4976 9.92217ZM21.7986 3.31887C23.6491 3.31887 25.4238 4.01457 26.7323 5.25293C28.0408 6.49129 28.7759 8.17087 28.7759 9.92217H14.8212C14.8212 8.17087 15.5563 6.49129 16.8648 5.25293C18.1734 4.01457 19.9481 3.31887 21.7986 3.31887ZM39.2419 31.3829C39.2419 32.6964 38.6906 33.9561 37.7092 34.8849C36.7278 35.8136 35.3968 36.3354 34.0089 36.3354H9.58824C8.20036 36.3354 6.86933 35.8136 5.88795 34.8849C4.90657 33.9561 4.35524 32.6964 4.35524 31.3829V14.8747C4.35524 14.4368 4.53902 14.0169 4.86615 13.7073C5.19327 13.3978 5.63695 13.2238 6.09957 13.2238H11.3326V16.5255C11.3326 16.9633 11.5163 17.3832 11.8435 17.6928C12.1706 18.0024 12.6143 18.1763 13.0769 18.1763C13.5395 18.1763 13.9832 18.0024 14.3103 17.6928C14.6375 17.3832 14.8212 16.9633 14.8212 16.5255V13.2238H28.7759V16.5255C28.7759 16.9633 28.9597 17.3832 29.2868 17.6928C29.6139 18.0024 30.0576 18.1763 30.5202 18.1763C30.9829 18.1763 31.4265 18.0024 31.7537 17.6928C32.0808 17.3832 32.2646 16.9633 32.2646 16.5255V13.2238H37.4976C37.9602 13.2238 38.4039 13.3978 38.731 13.7073C39.0581 14.0169 39.2419 14.4368 39.2419 14.8747V31.3829Z" fill="#13547A" fill-opacity="0.85"/>
    </g>
    <defs>
        <clipPath id="clip0_167_63">
            <rect width="41.864" height="39.6198" fill="white" transform="translate(0.866577 0.0172119)"/>
        </clipPath>
    </defs>
</svg>
