<svg width="43" height="41" viewBox="0 0 43 41" fill="none" xmlns="http://www.w3.org/2000/svg">
    <g clip-path="url(#clip0_167_61)">
        <path d="M36.0591 40.359C35.4138 40.3573 34.7752 40.2346 34.1803 39.998C33.5854 39.7614 33.0459 39.4156 32.5931 38.9805L21.8654 28.8874L11.1378 38.9871C10.4488 39.6487 9.56525 40.0984 8.60225 40.2778C7.63925 40.4571 6.6415 40.3577 5.73907 39.9925C4.82768 39.6456 4.04802 39.0466 3.50189 38.2738C2.95576 37.501 2.66855 36.5904 2.67777 35.6607V8.99327C2.67777 6.80414 3.59665 4.70467 5.23228 3.15672C6.86791 1.60877 9.0863 0.739136 11.3994 0.739136L32.3314 0.739136C33.4768 0.739136 34.6109 0.952635 35.6691 1.36744C36.7272 1.78225 37.6887 2.39025 38.4986 3.15672C39.3085 3.92318 39.9509 4.83311 40.3892 5.83455C40.8275 6.83599 41.0531 7.90932 41.0531 8.99327V35.6607C41.0629 36.5896 40.7767 37.4997 40.2318 38.2724C39.687 39.0451 38.9088 39.6445 37.9988 39.9925C37.3844 40.2357 36.725 40.3603 36.0591 40.359ZM11.3994 4.04079C10.0116 4.04079 8.68052 4.56257 7.69914 5.49134C6.71776 6.42011 6.16643 7.67979 6.16643 8.99327V35.6607C6.1658 35.9358 6.25133 36.2049 6.41221 36.434C6.57309 36.6631 6.80211 36.842 7.07033 36.9479C7.33855 37.0539 7.63395 37.0823 7.91921 37.0295C8.20447 36.9767 8.46679 36.8451 8.67304 36.6512L20.6444 25.3909C20.9712 25.0835 21.4133 24.9109 21.8741 24.9109C22.335 24.9109 22.7771 25.0835 23.1039 25.3909L35.0613 36.6479C35.2676 36.8418 35.5299 36.9734 35.8151 37.0262C36.1004 37.079 36.3958 37.0506 36.664 36.9446C36.9322 36.8386 37.1613 36.6598 37.3221 36.4307C37.483 36.2016 37.5685 35.9325 37.5679 35.6574V8.99327C37.5679 7.67979 37.0166 6.42011 36.0352 5.49134C35.0538 4.56257 33.7228 4.04079 32.3349 4.04079H11.3994Z" fill="#13547A" fill-opacity="0.85"/>
    </g>
    <defs>
        <clipPath id="clip0_167_61">
            <rect width="41.864" height="39.6198" fill="white" transform="translate(0.933228 0.739136)"/>
        </clipPath>
    </defs>
</svg>
