<svg width="45" height="45" viewBox="0 0 45 45" fill="none" xmlns="http://www.w3.org/2000/svg">
    <path d="M22.5 17.3943C21.4902 17.3943 20.503 17.6937 19.6634 18.2548C18.8238 18.8158 18.1694 19.6132 17.7829 20.5461C17.3965 21.4791 17.2954 22.5056 17.4924 23.4961C17.6894 24.4865 18.1757 25.3962 18.8897 26.1103C19.6038 26.8243 20.5135 27.3106 21.5039 27.5076C22.4943 27.7046 23.5209 27.6035 24.4539 27.217C25.3868 26.8306 26.1842 26.1762 26.7452 25.3366C27.3062 24.4969 27.6057 23.5098 27.6057 22.5C27.604 21.1464 27.0656 19.8487 26.1084 18.8916C25.1513 17.9344 23.8536 17.396 22.5 17.3943V17.3943Z" fill="#13547A" fill-opacity="0.85"/>
    <path d="M28.5066 9.49414H16.4934C14.6377 9.49628 12.8587 10.2344 11.5465 11.5466C10.2343 12.8587 9.49622 14.6378 9.49408 16.4934V28.5066C9.49622 30.3623 10.2343 32.1414 11.5465 33.4535C12.8587 34.7657 14.6377 35.5038 16.4934 35.5059H28.5066C30.3622 35.5038 32.1413 34.7657 33.4535 33.4535C34.7656 32.1414 35.5037 30.3623 35.5059 28.5066V16.4934C35.5037 14.6378 34.7656 12.8587 33.4535 11.5466C32.1413 10.2344 30.3622 9.49628 28.5066 9.49414V9.49414ZM22.5 30.303C20.9567 30.303 19.4481 29.8454 18.1649 28.988C16.8817 28.1306 15.8815 26.9119 15.2909 25.4861C14.7004 24.0603 14.5458 22.4914 14.8469 20.9777C15.148 19.4641 15.8912 18.0738 16.9824 16.9825C18.0737 15.8912 19.4641 15.1481 20.9777 14.847C22.4913 14.5459 24.0602 14.7004 25.4861 15.291C26.9119 15.8816 28.1305 16.8817 28.9879 18.1649C29.8453 19.4481 30.303 20.9568 30.303 22.5C30.3006 24.5688 29.4777 26.5521 28.0149 28.015C26.5521 29.4778 24.5687 30.3007 22.5 30.303V30.303ZM31.0743 15.8796C30.6933 15.8796 30.3208 15.7667 30.004 15.5551C29.6872 15.3435 29.4402 15.0427 29.2943 14.6908C29.1484 14.3388 29.1101 13.9515 29.1842 13.5778C29.2583 13.2041 29.4416 12.8608 29.7108 12.5912C29.98 12.3216 30.3231 12.1378 30.6967 12.0632C31.0703 11.9885 31.4577 12.0263 31.8098 12.1717C32.1619 12.3172 32.4631 12.5637 32.6751 12.8802C32.8872 13.1968 33.0006 13.5691 33.0012 13.95C33.0017 14.2034 32.9522 14.4543 32.8555 14.6885C32.7589 14.9227 32.6171 15.1356 32.4381 15.3149C32.2591 15.4942 32.0465 15.6365 31.8125 15.7335C31.5785 15.8306 31.3276 15.8805 31.0743 15.8805V15.8796Z" fill="#13547A" fill-opacity="0.85"/>
    <path d="M43.6358 11.2267C43.6333 10.4633 43.5634 9.70165 43.427 8.95057C43.2524 8.03347 43.0067 7.13977 42.5675 6.31087C42.1101 5.43755 41.5147 4.64375 40.8044 3.96007C39.7315 2.90975 38.4061 2.15346 36.956 1.76407C35.6213 1.40407 34.256 1.32847 32.8871 1.33027C32.8826 1.32424 32.8798 1.31708 32.879 1.30957H12.1124C12.1124 1.31677 12.1124 1.32397 12.1124 1.33027C11.3339 1.34467 10.5536 1.33837 9.77963 1.43467C8.93085 1.52441 8.09524 1.71164 7.28933 1.99267C6.03593 2.45501 4.90467 3.19748 3.98183 4.16347C2.92398 5.2385 2.16221 6.5689 1.77053 8.02537C1.41593 9.35017 1.33853 10.7011 1.33673 12.0619L1.32233 32.9122C1.34753 33.8527 1.35563 34.8022 1.51403 35.7346C1.68233 36.7246 1.92263 37.6885 2.38163 38.5867C2.9921 39.7902 3.86201 40.8433 4.92863 41.6701C5.69 42.2769 6.55254 42.7446 7.47653 43.0516C8.83733 43.4908 10.2413 43.6591 11.666 43.6672C12.5552 43.6726 13.4426 43.6951 14.3318 43.6915C20.7884 43.6645 27.2459 43.7383 33.7025 43.6519C34.5555 43.6332 35.4054 43.5428 36.2432 43.3819C37.8277 43.1027 39.3022 42.385 40.4993 41.3101C41.9195 40.0429 42.878 38.4931 43.3109 36.622C43.5944 35.3989 43.6646 34.1578 43.6772 32.9131V32.6647C43.6763 32.5675 43.6394 11.5057 43.6358 11.2267ZM38.2016 28.5067C38.1985 31.0773 37.1761 33.5417 35.3585 35.3595C33.5409 37.1772 31.0765 38.1999 28.5059 38.2033H16.4927C13.922 38.2002 11.4574 37.1776 9.63961 35.3598C7.82182 33.542 6.79922 31.0774 6.79613 28.5067V16.4935C6.79922 13.9227 7.82182 11.4582 9.63961 9.64036C11.4574 7.82256 13.922 6.79997 16.4927 6.79687H28.5059C31.0767 6.79997 33.5412 7.82256 35.359 9.64036C37.1768 11.4582 38.1994 13.9227 38.2025 16.4935L38.2016 28.5067Z" fill="#13547A" fill-opacity="0.85"/>
</svg>
