<svg width="350" height="113" viewBox="0 0 350 113" fill="none" xmlns="http://www.w3.org/2000/svg">
    <path d="M0 0H122.854V112.101H0V0Z" fill="url(#paint0_linear_167_43)" fill-opacity="0.9"/>
    <path d="M141.174 40.9823C144.349 35.5822 149.449 32.8821 156.474 32.8821V41.6573C152.218 41.4645 148.605 42.5574 145.632 44.936C142.66 47.2503 141.174 50.979 141.174 56.122V81.9656H132.359V33.75H141.174V40.9823Z" fill="#13547A" fill-opacity="0.9"/>
    <path d="M205.109 75.8904C199.907 80.7763 193.592 83.2192 186.161 83.2192C178.731 83.2192 172.415 80.7763 167.214 75.8904C162.08 71.0046 159.513 64.9937 159.513 57.8578C159.513 50.7219 162.08 44.711 167.214 39.8251C172.415 34.9393 178.731 32.4963 186.161 32.4963C193.592 32.4963 199.907 34.9393 205.109 39.8251C210.31 44.711 212.91 50.7219 212.91 57.8578C212.91 64.9937 210.31 71.0046 205.109 75.8904ZM186.161 75.0226C191.227 75.0226 195.483 73.3832 198.928 70.1046C202.373 66.8259 204.095 62.7436 204.095 57.8578C204.095 52.9719 202.373 48.8897 198.928 45.611C195.483 42.3323 191.227 40.693 186.161 40.693C181.163 40.693 176.941 42.3323 173.496 45.611C170.051 48.8897 168.328 52.9719 168.328 57.8578C168.328 62.7436 170.051 66.8259 173.496 70.1046C176.941 73.3832 181.163 75.0226 186.161 75.0226Z" fill="#13547A" fill-opacity="0.9"/>
    <path d="M266.105 75.8904C260.904 80.7763 254.588 83.2192 247.157 83.2192C239.727 83.2192 233.411 80.7763 228.21 75.8904C223.076 71.0046 220.51 64.9937 220.51 57.8578C220.51 50.7219 223.076 44.711 228.21 39.8251C233.411 34.9393 239.727 32.4963 247.157 32.4963C254.588 32.4963 260.904 34.9393 266.105 39.8251C271.306 44.711 273.907 50.7219 273.907 57.8578C273.907 64.9937 271.306 71.0046 266.105 75.8904ZM247.157 75.0226C252.224 75.0226 256.479 73.3832 259.924 70.1046C263.369 66.8259 265.092 62.7436 265.092 57.8578C265.092 52.9719 263.369 48.8897 259.924 45.611C256.479 42.3323 252.224 40.693 247.157 40.693C242.159 40.693 237.937 42.3323 234.492 45.611C231.047 48.8897 229.325 52.9719 229.325 57.8578C229.325 62.7436 231.047 66.8259 234.492 70.1046C237.937 73.3832 242.159 75.0226 247.157 75.0226Z" fill="#13547A" fill-opacity="0.9"/>
    <path d="M334.092 32.4963C338.686 32.4963 342.468 34.0071 345.44 37.0286C348.48 39.9858 350 44.1324 350 49.4683V81.9656H341.185V49.7575C341.185 46.6075 340.341 44.2931 338.652 42.8145C337.031 41.2716 334.937 40.5001 332.37 40.5001C329.6 40.5001 327.101 41.4645 324.872 43.3931C322.71 45.2574 321.63 48.3111 321.63 52.5541V81.9656H312.815V49.7575C312.815 46.6075 311.97 44.2931 310.281 42.8145C308.593 41.2716 306.465 40.5001 303.898 40.5001C301.129 40.5001 298.629 41.4645 296.4 43.3931C294.239 45.2574 293.158 48.3111 293.158 52.5541V81.9656H284.343V33.7499H293.158V39.0537C296.265 34.6821 300.656 32.4963 306.33 32.4963C312.274 32.4963 316.631 35.0357 319.401 40.1144C322.778 35.0357 327.675 32.4963 334.092 32.4963Z" fill="#13547A" fill-opacity="0.9"/>
    <path d="M104.534 33.7733H113.349V81.9889H104.534V76.0102C101.224 80.8318 96.2256 83.2425 89.5383 83.2425C84.6748 83.2425 80.6219 81.6032 77.3796 78.3245C74.1373 74.9816 72.5161 70.5457 72.5161 65.017V33.7733H81.3312V64.7277C81.3312 68.0707 82.2769 70.6743 84.1682 72.5387C86.1271 74.3387 88.694 75.2387 91.8688 75.2387C95.4488 75.2387 98.4548 74.1137 100.886 71.8636C103.318 69.5493 104.534 65.9813 104.534 61.1598V33.7733Z" fill="white" fill-opacity="0.9"/>
    <defs>
        <linearGradient id="paint0_linear_167_43" x1="-57.2816" y1="20.1783" x2="46.1588" y2="141.744" gradientUnits="userSpaceOnUse">
            <stop stop-color="#80D0C7"/>
            <stop offset="1" stop-color="#13547A"/>
        </linearGradient>
    </defs>
</svg>
