<svg width="41" height="20" viewBox="0 0 41 20" fill="none" xmlns="http://www.w3.org/2000/svg">
    <path d="M38.6886 13.3197L32.2126 19.5302C32.057 19.679 31.872 19.7972 31.668 19.8778C31.4641 19.9585 31.2454 20 31.0245 20C30.8036 20 30.5849 19.9585 30.3809 19.8778C30.177 19.7972 29.992 19.679 29.8364 19.5302C29.6795 19.3825 29.5551 19.2068 29.4701 19.0133C29.3851 18.8197 29.3414 18.6121 29.3414 18.4024C29.3414 18.1927 29.3851 17.9851 29.4701 17.7916C29.5551 17.598 29.6795 17.4223 29.8364 17.2747L35.7936 11.5884H1.67338C1.22957 11.5884 0.80394 11.421 0.49012 11.1231C0.1763 10.8253 0 10.4213 0 10C0 9.57874 0.1763 9.17473 0.49012 8.87686C0.80394 8.57898 1.22957 8.41164 1.67338 8.41164H35.894L29.8364 2.66177C29.5397 2.36637 29.3742 1.97392 29.3742 1.5658C29.3742 1.15769 29.5397 0.765232 29.8364 0.469834C29.992 0.32096 30.177 0.202795 30.3809 0.122156C30.5849 0.0415166 30.8036 0 31.0245 0C31.2454 0 31.4641 0.0415166 31.668 0.122156C31.872 0.202795 32.057 0.32096 32.2126 0.469834L38.6886 6.58502C39.6287 7.47848 40.1567 8.6896 40.1567 9.95235C40.1567 11.2151 39.6287 12.4262 38.6886 13.3197Z" fill="white"/>
</svg>
