<svg width="41" height="20" viewBox="0 0 41 20" fill="none" xmlns="http://www.w3.org/2000/svg">
    <path d="M1.46815 13.3197L7.9441 19.5302C8.09966 19.679 8.28473 19.7972 8.48865 19.8778C8.69257 19.9585 8.91129 20 9.13219 20C9.3531 20 9.57181 19.9585 9.77573 19.8778C9.97965 19.7972 10.1647 19.679 10.3203 19.5302C10.4771 19.3825 10.6016 19.2068 10.6866 19.0133C10.7715 18.8197 10.8153 18.6121 10.8153 18.4024C10.8153 18.1927 10.7715 17.9851 10.6866 17.7916C10.6016 17.598 10.4771 17.4223 10.3203 17.2747L4.36308 11.5884H38.4831C38.9269 11.5884 39.3526 11.421 39.6664 11.1231C39.9802 10.8253 40.1565 10.4213 40.1565 10C40.1565 9.57874 39.9802 9.17473 39.6664 8.87686C39.3526 8.57898 38.9269 8.41164 38.4831 8.41164H4.26268L10.3203 2.66177C10.617 2.36637 10.7825 1.97392 10.7825 1.5658C10.7825 1.15769 10.617 0.765232 10.3203 0.469834C10.1647 0.32096 9.97965 0.202795 9.77573 0.122156C9.57181 0.0415166 9.3531 0 9.13219 0C8.91129 0 8.69257 0.0415166 8.48865 0.122156C8.28473 0.202795 8.09966 0.32096 7.9441 0.469834L1.46815 6.58502C0.528046 7.47848 0 8.6896 0 9.95235C0 11.2151 0.528046 12.4262 1.46815 13.3197Z" fill="white"/>
</svg>
