<svg width="33" height="32" viewBox="0 0 33 32" fill="none" xmlns="http://www.w3.org/2000/svg">
    <g clip-path="url(#clip0_167_58)">
        <path d="M32.2411 29.3521L24.1802 21.7234C26.3769 19.1808 27.4569 15.9365 27.1969 12.6614C26.9369 9.38634 25.3567 6.33114 22.7833 4.12775C20.2098 1.92436 16.84 0.74137 13.3707 0.823462C9.90147 0.905554 6.59828 2.24645 4.14439 4.5688C1.6905 6.89115 0.273651 10.0173 0.186909 13.3005C0.100167 16.5838 1.35017 19.773 3.67836 22.2085C6.00655 24.6441 9.23481 26.1395 12.6954 26.3856C16.156 26.6316 19.5841 25.6095 22.2707 23.5306L30.3315 31.1593C30.5862 31.3921 30.9273 31.521 31.2814 31.518C31.6355 31.5151 31.9742 31.3807 32.2246 31.1438C32.475 30.9068 32.617 30.5862 32.6201 30.2511C32.6232 29.916 32.487 29.5932 32.2411 29.3521ZM13.7304 23.8654C11.5937 23.8654 9.5049 23.2658 7.72825 22.1423C5.95161 21.0188 4.56688 19.422 3.74918 17.5537C2.93148 15.6854 2.71753 13.6296 3.13439 11.6463C3.55125 9.66291 4.5802 7.84108 6.09111 6.41117C7.60202 4.98125 9.52704 4.00746 11.6227 3.61295C13.7184 3.21843 15.8907 3.42091 17.8648 4.19478C19.8389 4.96864 21.5262 6.27914 22.7133 7.96055C23.9004 9.64195 24.534 11.6188 24.534 13.641C24.5308 16.3517 23.3915 18.9506 21.3662 20.8674C19.3408 22.7842 16.5947 23.8624 13.7304 23.8654Z" fill="#13547A" fill-opacity="0.85"/>
    </g>
    <defs>
        <clipPath id="clip0_167_58">
            <rect width="32.4108" height="30.6734" fill="white" transform="translate(0.226196 0.859436)"/>
        </clipPath>
    </defs>
</svg>
