<svg width="43" height="43" viewBox="0 0 43 43" fill="none" xmlns="http://www.w3.org/2000/svg">
    <g clip-path="url(#clip0_167_91)">
        <path d="M7.16666 0C3.19633 0 0 3.19628 0 7.16657V35.8333C0 39.8036 3.19633 43 7.16666 43H35.8333C39.8037 43 43 39.8036 43 35.8333V7.16657C43 3.19628 39.8037 0 35.8333 0H7.16666ZM33.8772 10.2426C34.8155 10.3185 35.0901 11.2109 34.864 12.2581L30.6753 31.6586C30.4028 32.9203 29.4552 33.0761 28.3132 32.2431L22.3958 27.9248L19.1449 31.0637C18.635 31.5553 17.6873 31.6982 17.4058 30.8362L14.9667 23.3579L9.19979 21.5384C6.97628 20.836 8.56893 19.8398 9.32234 19.5472L32.712 10.4664C33.1781 10.2856 33.5646 10.2207 33.8773 10.2457L33.8772 10.2426ZM29.727 14.2809C29.5849 14.3079 29.4252 14.3669 29.279 14.459L16.083 22.8225C16.0042 22.8699 15.9166 22.8631 15.999 23.1164L18.1336 29.6671L18.5675 25.2158C18.5764 25.1298 18.58 25.0736 18.6759 24.9882L29.8178 14.9872C30.4333 14.4346 30.1526 14.2049 29.7268 14.2804L29.727 14.2809Z" fill="#13547A" fill-opacity="0.85"/>
    </g>
    <defs>
        <clipPath id="clip0_167_91">
            <rect width="43" height="43" fill="white"/>
        </clipPath>
    </defs>
</svg>
