<svg width="42" height="40" viewBox="0 0 42 40" fill="none" xmlns="http://www.w3.org/2000/svg">
    <g clip-path="url(#clip0_167_62)">
        <path d="M20.9319 19.827C23.0019 19.827 25.0254 19.2461 26.7465 18.1577C28.4677 17.0694 29.8091 15.5224 30.6013 13.7125C31.3934 11.9026 31.6007 9.91107 31.1968 7.98969C30.793 6.06832 29.7962 4.30342 28.3325 2.91819C26.8688 1.53296 25.004 0.5896 22.9738 0.207415C20.9435 -0.17477 18.8392 0.0213815 16.9268 0.771065C15.0144 1.52075 13.3798 2.79029 12.2298 4.41915C11.0798 6.04802 10.4659 7.96304 10.4659 9.92205C10.4687 12.5482 11.5723 15.0661 13.5344 16.923C15.4966 18.78 18.157 19.8244 20.9319 19.827ZM20.9319 3.31875C22.3119 3.31875 23.6609 3.70602 24.8083 4.43161C25.9557 5.15719 26.8501 6.18848 27.3782 7.39508C27.9062 8.60168 28.0444 9.92938 27.7752 11.2103C27.506 12.4912 26.8415 13.6678 25.8657 14.5913C24.8899 15.5148 23.6466 16.1437 22.2931 16.3985C20.9397 16.6533 19.5368 16.5225 18.2618 16.0227C16.9869 15.5229 15.8972 14.6766 15.1305 13.5907C14.3638 12.5047 13.9546 11.2281 13.9546 9.92205C13.9546 8.17075 14.6897 6.49117 15.9982 5.25281C17.3067 4.01445 19.0814 3.31875 20.9319 3.31875Z" fill="#13547A" fill-opacity="0.85"/>
        <path d="M20.9319 23.1298C16.7697 23.1342 12.7793 24.7009 9.83614 27.4863C6.89301 30.2717 5.23753 34.0482 5.23291 37.9873C5.23291 38.4251 5.41669 38.845 5.74381 39.1546C6.07094 39.4642 6.51462 39.6381 6.97724 39.6381C7.43987 39.6381 7.88355 39.4642 8.21067 39.1546C8.5378 38.845 8.72158 38.4251 8.72158 37.9873C8.72158 34.9225 10.008 31.9832 12.2979 29.8161C14.5878 27.649 17.6935 26.4315 20.9319 26.4315C24.1703 26.4315 27.276 27.649 29.5659 29.8161C31.8558 31.9832 33.1422 34.9225 33.1422 37.9873C33.1422 38.4251 33.326 38.845 33.6531 39.1546C33.9803 39.4642 34.4239 39.6381 34.8866 39.6381C35.3492 39.6381 35.7929 39.4642 36.12 39.1546C36.4471 38.845 36.6309 38.4251 36.6309 37.9873C36.6263 34.0482 34.9708 30.2717 32.0277 27.4863C29.0845 24.7009 25.0941 23.1342 20.9319 23.1298Z" fill="#13547A" fill-opacity="0.85"/>
    </g>
    <defs>
        <clipPath id="clip0_167_62">
            <rect width="41.864" height="39.6198" fill="white" transform="translate(-6.10352e-05 0.0172119)"/>
        </clipPath>
    </defs>
</svg>
