<svg width="43" height="43" viewBox="0 0 43 43" fill="none" xmlns="http://www.w3.org/2000/svg">
    <path fill-rule="evenodd" clip-rule="evenodd" d="M37.1858 0.40625H5.81264C2.84185 0.40625 0.405518 2.84249 0.405518 5.81337V37.1865C0.405518 40.1576 2.84185 42.5938 5.81264 42.5938H37.1858C40.1568 42.5938 42.593 40.1576 42.593 37.1866V5.81337C42.593 2.84249 40.1568 0.40625 37.1858 0.40625ZM31.082 22.6771C31.2216 23.9993 35.854 26.7701 35.5075 28.9017C35.3516 29.8569 33.7486 29.6879 32.3267 29.7329C31.0135 29.7753 29.7293 29.6896 29.1478 29.4565C28.1868 29.072 25.6631 25.7307 24.9986 25.8615C23.5222 26.149 24.0568 29.2403 23.6166 29.4565C22.9858 29.7658 20.9386 29.6733 20.1623 29.5936C16.0021 28.8948 13.5905 26.107 11.3127 22.5413C8.52784 18.1822 6.88051 14.9094 7.57977 14.5203C8.34846 14.0935 10.5005 14.1842 12.6955 14.2426C13.349 14.2623 15.2485 18.992 15.7364 19.7773C17.7166 22.9456 18.3366 20.6054 18.3643 20.3297C18.901 14.6459 17.5096 14.9023 16.7047 14.7964C17.3115 12.9537 21.5426 13.2758 21.5426 13.2758C21.5426 13.2758 22.9581 13.6182 23.4784 13.967C23.6924 14.1122 23.9324 14.5708 23.8926 16.0426C23.8361 18.2588 23.6111 21.2816 24.585 21.2964C25.3362 21.3074 26.5263 19.5405 27.4885 17.7015C28.3394 16.0743 28.9947 14.4969 29.2848 14.3829C29.5991 14.259 30.9582 14.2505 32.3266 14.2425C33.6666 14.2362 35.0174 14.225 35.369 14.5203C36.0778 15.1184 34.8453 17.0584 33.7086 18.6683C32.7781 19.9921 30.9822 21.7344 31.082 22.6771Z" fill="#13547A" fill-opacity="0.85"/>
</svg>
